<svg xmlns="http://www.w3.org/2000/svg" xmlns:xlink="http://www.w3.org/1999/xlink" width="128" zoomAndPan="magnify" viewBox="0 0 96 95.999999" height="128" preserveAspectRatio="xMidYMid meet" version="1.0"><defs><g/><clipPath id="b6a9580128"><path d="M 9.175781 50.28125 L 28.675781 50.28125 L 28.675781 75.78125 L 9.175781 75.78125 Z M 9.175781 50.28125 " clip-rule="nonzero"/></clipPath></defs><rect x="-9.6" width="115.2" fill="#ffffff" y="-9.6" height="115.199999" fill-opacity="1"/><rect x="-9.6" width="115.2" fill="#ffffff" y="-9.6" height="115.199999" fill-opacity="1"/><rect x="-9.6" width="115.2" fill="#ffffff" y="-9.6" height="115.199999" fill-opacity="1"/><path fill="#ffffff" d="M 100.183594 97.398438 C 100.183594 97.398438 98.019531 80.175781 100.183594 74.792969 C 102.347656 69.410156 108.839844 54.34375 108.839844 54.34375 L 107.757812 34.96875 L 99.101562 39.273438 L 95.855469 52.191406 L 92.609375 23.128906 L 86.113281 20.976562 L 86.113281 26.359375 L 82.871094 19.902344 L 77.457031 23.128906 L 76.378906 28.511719 L 77.457031 23.128906 L 69.882812 22.054688 L 68.800781 30.664062 L 64.472656 31.742188 C 64.472656 31.742188 60.144531 50.039062 62.308594 55.421875 C 64.472656 60.800781 65.554688 73.71875 65.554688 73.71875 L 70.964844 79.097656 L 68.800781 102.777344 " fill-opacity="1" fill-rule="nonzero"/><path fill="#ffffff" d="M 118.582031 31.742188 C 118.582031 31.742188 64.472656 26.359375 60.144531 28.511719 C 55.816406 30.664062 54.730469 32.816406 47.15625 33.894531 C 39.582031 34.96875 30.925781 34.96875 30.925781 34.96875 L 26.597656 33.894531 L 14.691406 32.816406 L 8.199219 26.359375 L 6.035156 25.28125 C 11.445312 20.976562 21.183594 18.824219 21.183594 18.824219 L 12.527344 18.824219 L 7.117188 14.519531 C 7.117188 14.519531 8.199219 11.289062 13.609375 10.210938 C 19.019531 9.136719 33.089844 5.90625 33.089844 5.90625 L 25.511719 5.90625 L 20.101562 1.601562 C 20.101562 1.601562 33.089844 -4.855469 40.664062 -4.855469 C 48.238281 -4.855469 54.730469 -3.777344 54.730469 -3.777344 C 54.730469 -3.777344 69.882812 5.90625 76.378906 5.90625 C 82.871094 5.90625 113.167969 4.832031 113.167969 4.832031 " fill-opacity="1" fill-rule="nonzero"/><path fill="#f7931a" d="M 107.492188 103.023438 C 107.492188 103.023438 105.328125 85.800781 107.492188 80.421875 C 109.65625 75.039062 116.148438 59.96875 116.148438 59.96875 L 115.066406 40.59375 L 106.410156 44.902344 L 103.164062 57.816406 L 99.917969 28.753906 L 93.421875 26.601562 L 93.421875 31.984375 L 90.175781 25.527344 L 84.765625 28.753906 L 83.683594 34.136719 L 84.765625 28.753906 L 77.191406 27.679688 L 76.109375 36.289062 L 71.78125 37.367188 C 71.78125 37.367188 67.449219 55.664062 69.613281 61.046875 C 71.78125 66.425781 72.863281 79.34375 72.863281 79.34375 L 78.273438 84.726562 L 76.109375 108.40625 " fill-opacity="1" fill-rule="nonzero"/><path fill="#f7931a" d="M 125.886719 37.367188 C 125.886719 37.367188 71.78125 31.984375 67.449219 34.136719 C 63.121094 36.289062 62.042969 38.441406 54.464844 39.519531 C 46.890625 40.59375 38.230469 40.59375 38.230469 40.59375 L 33.902344 39.519531 L 22 38.441406 L 15.507812 31.984375 L 13.34375 30.90625 C 18.753906 26.601562 28.492188 24.449219 28.492188 24.449219 L 19.835938 24.449219 L 14.425781 20.144531 C 14.425781 20.144531 15.507812 16.914062 20.917969 15.839844 C 26.328125 14.761719 40.398438 11.535156 40.398438 11.535156 L 32.824219 11.535156 L 27.410156 7.226562 C 27.410156 7.226562 40.398438 0.769531 47.972656 0.769531 C 55.546875 0.769531 62.042969 1.847656 62.042969 1.847656 C 62.042969 1.847656 77.191406 11.535156 83.683594 11.535156 C 90.175781 11.535156 120.476562 10.457031 120.476562 10.457031 " fill-opacity="1" fill-rule="nonzero"/><path fill="#000000" d="M 107.992188 8.164062 C 106.382812 8.300781 101.640625 8.078125 95.632812 7.800781 C 91.613281 7.613281 87.0625 7.398438 82.503906 7.25 L 82.535156 7.253906 C 82.414062 7.238281 70.300781 5.476562 67.292969 4.925781 C 65.3125 4.5625 63.621094 3.214844 62.382812 2.230469 C 61.738281 1.71875 61.230469 1.316406 60.820312 1.15625 C 60.542969 1.042969 60.398438 0.921875 60.230469 0.78125 C 59.753906 0.378906 59.214844 -0.078125 55.972656 -0.410156 C 53.203125 -0.6875 52.070312 -0.25 51.15625 0.105469 C 50.609375 0.316406 50.175781 0.484375 49.492188 0.445312 C 48.394531 0.382812 46.832031 0.523438 45.328125 0.660156 C 44.160156 0.765625 43.058594 0.863281 42.238281 0.863281 C 39.347656 0.863281 38.21875 0.917969 35.582031 1.949219 C 33.015625 2.953125 29.222656 3.027344 29.1875 3.027344 L 29.152344 3.027344 L 29.117188 3.039062 L 27.820312 3.40625 L 27.886719 3.394531 L 22.988281 3.53125 L 22.761719 3.539062 L 22.726562 3.761719 C 22.671875 4.148438 22.226562 7.550781 23.78125 8.308594 C 24.167969 8.496094 24.503906 8.71875 24.828125 8.933594 C 25.683594 9.496094 26.570312 10.082031 28.410156 10.128906 C 30.902344 10.199219 33.253906 9.203125 33.351562 9.164062 L 33.242188 9.183594 C 33.34375 9.1875 43.519531 9.378906 45.140625 9.511719 L 45.183594 8.976562 C 43.546875 8.84375 33.671875 8.65625 33.25 8.644531 L 33.191406 8.644531 L 33.140625 8.667969 C 33.117188 8.679688 30.792969 9.652344 28.421875 9.589844 C 26.738281 9.546875 25.957031 9.03125 25.128906 8.484375 C 24.789062 8.261719 24.4375 8.03125 24.019531 7.824219 C 23 7.328125 23.128906 4.78125 23.261719 3.839844 L 23.003906 4.070312 L 27.902344 3.933594 L 27.933594 3.933594 L 27.96875 3.921875 L 29.265625 3.554688 L 29.195312 3.566406 C 29.355469 3.5625 33.125 3.492188 35.78125 2.449219 C 38.324219 1.457031 39.425781 1.402344 42.238281 1.402344 C 43.082031 1.402344 44.195312 1.300781 45.375 1.195312 C 46.863281 1.0625 48.402344 0.921875 49.460938 0.984375 C 50.261719 1.03125 50.792969 0.824219 51.355469 0.605469 C 52.210938 0.273438 53.28125 -0.140625 55.917969 0.128906 C 58.992188 0.441406 59.464844 0.839844 59.882812 1.191406 C 60.066406 1.351562 60.261719 1.511719 60.621094 1.65625 C 60.953125 1.785156 61.457031 2.1875 62.042969 2.652344 C 63.324219 3.671875 65.082031 5.066406 67.195312 5.453125 C 70.210938 6.007812 82.335938 7.769531 82.457031 7.785156 L 82.472656 7.789062 L 82.488281 7.789062 C 87.039062 7.9375 91.589844 8.148438 95.605469 8.335938 C 101.632812 8.617188 106.394531 8.839844 108.039062 8.703125 L 107.992188 8.164062 " fill-opacity="1" fill-rule="nonzero"/><path fill="#000000" d="M 44.359375 9.25 C 43.910156 9.339844 33.382812 11.441406 31.5625 11.960938 C 28.71875 12.769531 26.511719 13.886719 26.488281 13.898438 C 26.480469 13.902344 25.417969 14.425781 24.113281 14.683594 C 22.773438 14.949219 16.167969 15.996094 16.101562 16.007812 L 16.0625 16.015625 C 16 16.035156 14.5 16.507812 13.175781 17.136719 C 12.085938 17.660156 11.527344 18.242188 11.457031 18.914062 C 11.355469 19.972656 12.527344 20.84375 13.308594 21.417969 L 13.398438 21.492188 C 14.277344 22.144531 15.703125 22.011719 16.960938 21.894531 C 17.40625 21.851562 17.828125 21.8125 18.183594 21.8125 C 18.664062 21.8125 18.976562 21.847656 19.285156 21.878906 C 19.820312 21.9375 20.28125 21.988281 21.351562 21.8125 C 23.019531 21.535156 24.894531 21.410156 25.929688 21.410156 C 27.03125 21.410156 34.890625 19.824219 35.222656 19.757812 L 35.113281 19.226562 C 32.304688 19.796875 26.769531 20.871094 25.929688 20.871094 C 24.871094 20.871094 22.960938 21 21.265625 21.28125 C 20.265625 21.445312 19.859375 21.402344 19.34375 21.347656 C 19.039062 21.3125 18.691406 21.277344 18.183594 21.277344 C 17.800781 21.277344 17.367188 21.316406 16.910156 21.359375 C 15.75 21.46875 14.433594 21.585938 13.726562 21.058594 L 13.628906 20.988281 C 12.992188 20.515625 11.925781 19.722656 12 18.96875 C 12.042969 18.5 12.519531 18.050781 13.410156 17.621094 C 14.695312 17.007812 16.210938 16.535156 16.226562 16.53125 L 16.1875 16.539062 C 16.457031 16.496094 22.867188 15.480469 24.21875 15.210938 C 25.597656 14.9375 26.683594 14.402344 26.734375 14.378906 C 26.753906 14.363281 28.917969 13.269531 31.710938 12.476562 C 33.507812 11.964844 44.355469 9.800781 44.464844 9.777344 L 44.359375 9.25 " fill-opacity="1" fill-rule="nonzero"/><path fill="#000000" d="M 9.894531 28.574219 C 9.894531 28.925781 10.027344 29.226562 10.292969 29.464844 C 10.957031 30.070312 12.480469 30.269531 14.808594 30.058594 C 16.535156 29.902344 19.765625 29.59375 22.027344 29.273438 L 21.953125 28.738281 C 19.703125 29.058594 16.480469 29.367188 14.761719 29.523438 C 12.050781 29.765625 11.035156 29.410156 10.660156 29.070312 C 10.507812 28.933594 10.433594 28.769531 10.433594 28.574219 L 9.894531 28.574219 " fill-opacity="1" fill-rule="nonzero"/><path fill="#000000" d="M 34 20.207031 C 32.398438 20.738281 27.816406 21.8125 27.769531 21.824219 C 27.707031 21.84375 22.148438 23.34375 20.609375 23.4375 C 16.445312 23.699219 11.554688 24.746094 10.59375 26.050781 C 10.597656 26.046875 9.816406 27.058594 9.816406 27.058594 L 9.746094 27.148438 L 9.761719 27.261719 L 9.898438 28.207031 L 10.433594 28.128906 L 10.296875 27.183594 L 10.242188 27.386719 L 11.027344 26.371094 C 11.78125 25.351562 16.1875 24.253906 20.644531 23.976562 C 22.238281 23.878906 27.671875 22.410156 27.902344 22.347656 C 28.082031 22.304688 32.546875 21.257812 34.171875 20.71875 L 34 20.207031 " fill-opacity="1" fill-rule="nonzero"/><path fill="#000000" d="M 36.039062 27.375 C 34.472656 27.890625 31.679688 27.765625 31.652344 27.765625 L 31.632812 27.761719 L 31.617188 27.765625 C 31.570312 27.769531 27.050781 28.125 25.488281 28.304688 C 24.773438 28.390625 24.457031 28.5 24.199219 28.585938 C 23.84375 28.710938 23.582031 28.796875 22.21875 28.738281 L 22.195312 29.277344 C 23.660156 29.339844 23.976562 29.230469 24.375 29.09375 C 24.617188 29.011719 24.894531 28.917969 25.550781 28.839844 C 27.105469 28.660156 31.613281 28.304688 31.660156 28.300781 L 31.625 28.300781 C 31.742188 28.308594 34.546875 28.433594 36.207031 27.882812 L 36.039062 27.375 " fill-opacity="1" fill-rule="nonzero"/><path fill="#000000" d="M 18.492188 31.132812 C 18.492188 33.058594 19.449219 34.207031 21.421875 34.640625 C 23.433594 35.085938 24.558594 34.890625 25.867188 34.660156 C 26.199219 34.605469 26.542969 34.542969 26.917969 34.492188 L 26.84375 33.957031 C 26.457031 34.011719 26.113281 34.074219 25.777344 34.128906 C 24.472656 34.355469 23.445312 34.535156 21.539062 34.117188 C 19.292969 33.621094 19.035156 32.175781 19.035156 31.132812 L 18.492188 31.132812 " fill-opacity="1" fill-rule="nonzero"/><path fill="#000000" d="M 39.976562 32.238281 C 38.628906 32.691406 37.34375 32.765625 37.332031 32.765625 L 37.3125 32.765625 C 37.3125 32.765625 37.292969 32.769531 37.292969 32.769531 C 37.25 32.78125 32.816406 33.652344 31.492188 33.710938 C 30.679688 33.75 30.253906 33.730469 29.914062 33.71875 C 29.316406 33.695312 29.015625 33.683594 27.507812 33.988281 L 27.613281 34.515625 C 29.058594 34.222656 29.339844 34.238281 29.894531 34.253906 C 30.226562 34.269531 30.679688 34.289062 31.515625 34.25 C 32.882812 34.1875 37.214844 33.335938 37.398438 33.300781 L 37.359375 33.304688 C 37.414062 33.300781 38.730469 33.226562 40.148438 32.75 L 39.976562 32.238281 " fill-opacity="1" fill-rule="nonzero"/><path fill="#000000" d="M 33.636719 38.3125 C 33.089844 38.390625 32.777344 38.480469 32.523438 38.554688 C 32.042969 38.695312 31.847656 38.753906 30.492188 38.453125 C 28.59375 38.027344 28.371094 36.792969 28.371094 35.898438 L 28.320312 36.058594 C 28.316406 36.058594 28.539062 35.792969 29.351562 35.4375 L 29.285156 35.457031 C 29.316406 35.453125 32.503906 34.921875 33.707031 34.789062 C 33.96875 34.761719 34.289062 34.734375 34.628906 34.710938 C 35.921875 34.617188 37.535156 34.5 38.441406 33.9375 C 39.472656 33.300781 40.785156 33.03125 40.796875 33.027344 L 40.691406 32.5 C 40.632812 32.511719 39.269531 32.789062 38.152344 33.480469 C 37.359375 33.976562 35.761719 34.09375 34.589844 34.175781 C 34.242188 34.199219 33.917969 34.222656 33.644531 34.253906 C 32.429688 34.390625 29.328125 34.90625 29.195312 34.925781 L 29.160156 34.929688 L 29.132812 34.945312 C 28.195312 35.359375 27.925781 35.679688 27.882812 35.742188 L 27.832031 35.8125 L 27.832031 35.898438 C 27.832031 37.585938 28.664062 38.59375 30.375 38.976562 C 31.808594 39.296875 32.101562 39.242188 32.675781 39.070312 C 32.914062 39.003906 33.207031 38.917969 33.714844 38.84375 L 33.636719 38.3125 " fill-opacity="1" fill-rule="nonzero"/><path fill="#000000" d="M 33.683594 38.84375 C 33.835938 38.839844 48.902344 38.40625 56.335938 35.472656 C 58.589844 34.585938 59.945312 33.570312 61.03125 32.75 C 62.253906 31.832031 62.996094 31.277344 64.195312 31.539062 L 64.226562 31.546875 L 70.777344 31.546875 L 70.777344 31.007812 L 64.253906 31.007812 L 64.3125 31.015625 C 62.867188 30.695312 61.960938 31.375 60.703125 32.320312 C 59.644531 33.117188 58.324219 34.113281 56.136719 34.972656 C 48.792969 37.871094 33.820312 38.304688 33.667969 38.308594 L 33.683594 38.84375 " fill-opacity="1" fill-rule="nonzero"/><path fill="#000000" d="M 102.921875 50.195312 C 102.449219 47.679688 101.980469 46.449219 101.605469 45.460938 C 101.339844 44.769531 101.132812 44.222656 101.019531 43.449219 C 100.886719 42.515625 100.820312 41.148438 100.753906 39.824219 C 100.683594 38.488281 100.617188 37.109375 100.476562 36.152344 C 100.191406 34.160156 98.015625 23.917969 97.75 23.128906 C 97.515625 22.421875 96.28125 20.269531 94.902344 19.582031 C 94.445312 19.355469 94.007812 19.308594 93.601562 19.445312 C 91.921875 20 89.835938 22.546875 90.4375 24.640625 C 90.765625 25.78125 91.097656 29.199219 91.367188 31.949219 C 91.535156 33.675781 91.683594 35.167969 91.789062 35.703125 C 92.058594 37.023438 93.136719 48.535156 93.148438 48.648438 L 93.683594 48.601562 C 93.640625 48.125 92.59375 36.945312 92.320312 35.597656 C 92.21875 35.089844 92.074219 33.609375 91.90625 31.898438 C 91.636719 29.128906 91.296875 25.679688 90.957031 24.488281 C 90.445312 22.707031 92.320312 20.433594 93.773438 19.953125 C 94.042969 19.863281 94.332031 19.902344 94.664062 20.066406 C 95.894531 20.679688 97.050781 22.75 97.238281 23.296875 C 97.484375 24.046875 99.671875 34.339844 99.941406 36.226562 C 100.078125 37.160156 100.144531 38.527344 100.210938 39.851562 C 100.277344 41.1875 100.347656 42.566406 100.484375 43.527344 C 100.605469 44.359375 100.824219 44.929688 101.097656 45.652344 C 101.464844 46.621094 101.925781 47.828125 102.390625 50.296875 L 102.921875 50.195312 " fill-opacity="1" fill-rule="nonzero"/><path fill="#000000" d="M 92.324219 48.058594 C 92.316406 47.941406 91.230469 36.117188 90.691406 32.898438 C 90.15625 29.691406 88.804688 22.160156 88.789062 22.082031 C 88.792969 22.105469 88.519531 19.402344 88.519531 19.402344 L 88.507812 19.289062 L 88.425781 19.222656 C 88.355469 19.164062 86.695312 17.808594 84.71875 17.808594 C 82.636719 17.808594 81.777344 20.582031 81.742188 20.703125 L 81.722656 20.761719 L 81.734375 20.824219 C 81.75 20.917969 83.355469 30.285156 83.089844 33.191406 C 82.816406 36.152344 83.601562 46.0625 83.632812 46.480469 L 84.171875 46.441406 C 84.164062 46.335938 83.363281 36.15625 83.628906 33.238281 C 83.898438 30.265625 82.332031 21.121094 82.265625 20.734375 L 82.257812 20.855469 C 82.265625 20.832031 83.039062 18.34375 84.71875 18.34375 C 86.496094 18.34375 88.0625 19.621094 88.078125 19.636719 L 87.980469 19.453125 L 88.253906 22.160156 C 88.269531 22.253906 89.621094 29.785156 90.160156 32.988281 C 90.695312 36.1875 91.773438 47.992188 91.785156 48.109375 L 92.324219 48.058594 " fill-opacity="1" fill-rule="nonzero"/><path fill="#000000" d="M 84.03125 47.765625 C 84.023438 47.652344 82.992188 36.539062 82.476562 33.515625 C 81.964844 30.496094 80.675781 23.417969 80.664062 23.347656 C 80.667969 23.367188 80.410156 20.828125 80.410156 20.828125 L 80.398438 20.71875 L 80.3125 20.644531 C 80.246094 20.59375 78.664062 19.3125 76.777344 19.3125 C 74.785156 19.3125 73.960938 21.933594 73.925781 22.046875 L 73.910156 22.105469 L 73.921875 22.167969 C 73.9375 22.257812 75.464844 31.058594 75.210938 33.789062 C 74.953125 36.574219 75.695312 45.890625 75.730469 46.285156 L 76.269531 46.242188 C 76.261719 46.144531 75.496094 36.578125 75.75 33.835938 C 76.007812 31.039062 74.515625 22.441406 74.453125 22.078125 L 74.445312 22.203125 C 74.453125 22.179688 75.1875 19.851562 76.777344 19.851562 C 78.464844 19.851562 79.953125 21.050781 79.96875 21.0625 L 79.871094 20.878906 L 80.128906 23.421875 C 80.148438 23.515625 81.433594 30.589844 81.945312 33.601562 C 82.453125 36.609375 83.484375 47.703125 83.496094 47.8125 L 84.03125 47.765625 " fill-opacity="1" fill-rule="nonzero"/><path fill="#000000" d="M 75.84375 46.125 C 75.84375 45.828125 75.902344 38.816406 75.753906 36.828125 C 75.753906 36.828125 75.207031 30.144531 75.207031 30.144531 C 75.207031 30.164062 75.207031 28.511719 75.207031 28.511719 L 75.207031 28.394531 L 75.121094 28.316406 C 75.078125 28.277344 74.054688 27.320312 72.726562 27.175781 C 71.296875 27.027344 70.519531 28.710938 70.488281 28.78125 L 70.457031 28.84375 L 70.464844 28.910156 C 70.46875 28.96875 70.910156 34.734375 70.550781 36.457031 C 70.179688 38.246094 70.046875 44.308594 70.042969 44.5625 C 70.042969 44.617188 70.035156 49.164062 69.503906 51.539062 C 69 53.800781 68.222656 61.003906 69.074219 64.105469 C 69.335938 65.066406 69.476562 65.71875 69.597656 66.292969 C 69.863281 67.523438 70.054688 68.40625 71.160156 71.164062 C 72.105469 73.511719 74.398438 75.507812 74.496094 75.59375 L 74.402344 75.378906 C 74.371094 76.097656 73.574219 92.96875 73.574219 94.3125 L 74.117188 94.3125 C 74.117188 92.984375 74.9375 75.578125 74.945312 75.402344 L 74.949219 75.273438 L 74.851562 75.1875 C 74.828125 75.167969 72.558594 73.1875 71.664062 70.964844 C 70.570312 68.25 70.386719 67.382812 70.128906 66.179688 C 70.003906 65.597656 69.859375 64.9375 69.59375 63.964844 C 68.816406 61.125 69.445312 54.285156 70.03125 51.65625 C 70.578125 49.222656 70.582031 44.757812 70.582031 44.570312 C 70.582031 44.511719 70.71875 38.304688 71.082031 36.566406 C 71.457031 34.769531 71.023438 29.109375 71.003906 28.871094 L 70.980469 29.003906 C 70.984375 28.988281 71.628906 27.601562 72.667969 27.714844 C 73.808594 27.835938 74.738281 28.699219 74.75 28.707031 L 74.664062 28.511719 L 74.667969 30.167969 C 74.667969 30.191406 75.214844 36.863281 75.214844 36.863281 C 75.359375 38.832031 75.300781 46.046875 75.300781 46.121094 L 75.84375 46.125 " fill-opacity="1" fill-rule="nonzero"/><path fill="#000000" d="M 18.957031 31.324219 C 18.96875 31.308594 20.125 30.160156 22.453125 29.648438 L 22.335938 29.121094 C 19.84375 29.675781 18.621094 30.894531 18.570312 30.945312 L 18.957031 31.324219 " fill-opacity="1" fill-rule="nonzero"/><path fill="#000000" d="M 27.640625 3.566406 L 27.503906 3.921875 L 28.007812 4.113281 L 28.144531 3.761719 L 28.414062 3.066406 L 27.761719 3.429688 C 25.894531 4.472656 24.476562 4.867188 23.183594 3.609375 L 22.804688 3.992188 C 24.425781 5.570312 26.273438 4.878906 28.027344 3.898438 L 27.640625 3.566406 L 27.503906 3.921875 L 28.007812 4.113281 L 28.144531 3.761719 L 27.640625 3.566406 " fill-opacity="1" fill-rule="nonzero"/><path fill="#000000" d="M 42.582031 18.675781 C 42.8125 20.28125 43.421875 21.6875 44.011719 23.050781 C 44.832031 24.945312 45.609375 26.734375 45.300781 28.871094 L 45.835938 28.949219 C 46.164062 26.660156 45.359375 24.800781 44.507812 22.835938 C 43.933594 21.511719 43.335938 20.136719 43.117188 18.601562 L 42.582031 18.675781 " fill-opacity="1" fill-rule="nonzero"/><path fill="#000000" d="M 66.21875 8.046875 C 67.785156 11.160156 70.753906 21.347656 66.488281 26.648438 L 66.910156 26.984375 C 71.253906 21.585938 68.585938 11.550781 66.707031 7.808594 L 66.21875 8.046875 " fill-opacity="1" fill-rule="nonzero"/><path fill="#000000" d="M 43.902344 13.15625 C 46.121094 17.296875 50.59375 19.789062 55.300781 19.515625 L 55.269531 18.976562 C 50.773438 19.242188 46.5 16.855469 44.378906 12.902344 L 43.902344 13.15625 " fill-opacity="1" fill-rule="nonzero"/><g fill="#000000" fill-opacity="1"><g transform="translate(27.617914, 62.179622)"><g><path d="M 1.921875 -7.96875 C 1.597656 -7.96875 1.332031 -8.066406 1.125 -8.265625 C 0.925781 -8.460938 0.828125 -8.710938 0.828125 -9.015625 C 0.828125 -9.328125 0.925781 -9.578125 1.125 -9.765625 C 1.332031 -9.960938 1.597656 -10.0625 1.921875 -10.0625 C 2.128906 -10.0625 2.316406 -10.015625 2.484375 -9.921875 C 2.660156 -9.835938 2.789062 -9.71875 2.875 -9.5625 C 2.96875 -9.40625 3.015625 -9.222656 3.015625 -9.015625 C 3.015625 -8.816406 2.96875 -8.640625 2.875 -8.484375 C 2.789062 -8.328125 2.660156 -8.203125 2.484375 -8.109375 C 2.316406 -8.015625 2.128906 -7.96875 1.921875 -7.96875 Z M 1.03125 0 L 1.03125 -7.125 L 2.8125 -7.125 L 2.8125 0 Z M 1.03125 0 "/></g></g><g transform="translate(31.453561, 62.179622)"><g><path d="M 4.90625 -1.703125 L 5.375 -0.375 C 5.1875 -0.21875 4.941406 -0.09375 4.640625 0 C 4.347656 0.09375 4.019531 0.140625 3.65625 0.140625 C 2.882812 0.140625 2.296875 -0.0664062 1.890625 -0.484375 C 1.492188 -0.910156 1.296875 -1.523438 1.296875 -2.328125 L 1.296875 -5.703125 L 0.21875 -5.703125 L 0.21875 -7.125 L 1.296875 -7.125 L 1.296875 -8.515625 L 3.078125 -8.796875 L 3.078125 -7.125 L 5.109375 -7.125 L 5.109375 -5.703125 L 3.078125 -5.703125 L 3.078125 -2.453125 C 3.078125 -2.097656 3.148438 -1.835938 3.296875 -1.671875 C 3.453125 -1.515625 3.664062 -1.4375 3.9375 -1.4375 C 4.257812 -1.4375 4.539062 -1.523438 4.78125 -1.703125 Z M 4.90625 -1.703125 "/></g></g><g transform="translate(36.987484, 62.179622)"><g><path d="M 4.15625 0.140625 C 3.46875 0.140625 2.859375 0 2.328125 -0.28125 C 1.796875 -0.570312 1.378906 -0.992188 1.078125 -1.546875 C 0.785156 -2.109375 0.640625 -2.78125 0.640625 -3.5625 C 0.640625 -4.34375 0.785156 -5.007812 1.078125 -5.5625 C 1.378906 -6.113281 1.789062 -6.53125 2.3125 -6.8125 C 2.84375 -7.101562 3.445312 -7.25 4.125 -7.25 C 5.625 -7.25 6.582031 -6.707031 7 -5.625 L 5.78125 -4.75 L 5.640625 -4.75 C 5.492188 -5.082031 5.300781 -5.328125 5.0625 -5.484375 C 4.832031 -5.648438 4.519531 -5.734375 4.125 -5.734375 C 3.601562 -5.734375 3.195312 -5.554688 2.90625 -5.203125 C 2.625 -4.847656 2.484375 -4.300781 2.484375 -3.5625 C 2.484375 -2.820312 2.628906 -2.269531 2.921875 -1.90625 C 3.210938 -1.550781 3.625 -1.375 4.15625 -1.375 C 4.539062 -1.375 4.863281 -1.476562 5.125 -1.6875 C 5.394531 -1.894531 5.59375 -2.195312 5.71875 -2.59375 L 5.84375 -2.609375 L 7.125 -1.90625 C 6.9375 -1.300781 6.597656 -0.804688 6.109375 -0.421875 C 5.628906 -0.046875 4.976562 0.140625 4.15625 0.140625 Z M 4.15625 0.140625 "/></g></g><g transform="translate(44.329455, 62.179622)"><g><path d="M 4.140625 0.140625 C 3.441406 0.140625 2.828125 0 2.296875 -0.28125 C 1.773438 -0.570312 1.367188 -0.992188 1.078125 -1.546875 C 0.785156 -2.097656 0.640625 -2.769531 0.640625 -3.5625 C 0.640625 -4.34375 0.785156 -5.007812 1.078125 -5.5625 C 1.367188 -6.113281 1.773438 -6.53125 2.296875 -6.8125 C 2.828125 -7.101562 3.441406 -7.25 4.140625 -7.25 C 4.835938 -7.25 5.445312 -7.101562 5.96875 -6.8125 C 6.5 -6.53125 6.910156 -6.113281 7.203125 -5.5625 C 7.492188 -5.007812 7.640625 -4.34375 7.640625 -3.5625 C 7.640625 -2.769531 7.492188 -2.097656 7.203125 -1.546875 C 6.910156 -0.992188 6.5 -0.570312 5.96875 -0.28125 C 5.445312 0 4.835938 0.140625 4.140625 0.140625 Z M 4.140625 -1.375 C 5.242188 -1.375 5.796875 -2.101562 5.796875 -3.5625 C 5.796875 -4.3125 5.648438 -4.859375 5.359375 -5.203125 C 5.078125 -5.554688 4.671875 -5.734375 4.140625 -5.734375 C 3.035156 -5.734375 2.484375 -5.007812 2.484375 -3.5625 C 2.484375 -2.101562 3.035156 -1.375 4.140625 -1.375 Z M 4.140625 -1.375 "/></g></g><g transform="translate(52.607738, 62.179622)"><g><path d="M 1.921875 -7.96875 C 1.597656 -7.96875 1.332031 -8.066406 1.125 -8.265625 C 0.925781 -8.460938 0.828125 -8.710938 0.828125 -9.015625 C 0.828125 -9.328125 0.925781 -9.578125 1.125 -9.765625 C 1.332031 -9.960938 1.597656 -10.0625 1.921875 -10.0625 C 2.128906 -10.0625 2.316406 -10.015625 2.484375 -9.921875 C 2.660156 -9.835938 2.789062 -9.71875 2.875 -9.5625 C 2.96875 -9.40625 3.015625 -9.222656 3.015625 -9.015625 C 3.015625 -8.816406 2.96875 -8.640625 2.875 -8.484375 C 2.789062 -8.328125 2.660156 -8.203125 2.484375 -8.109375 C 2.316406 -8.015625 2.128906 -7.96875 1.921875 -7.96875 Z M 1.03125 0 L 1.03125 -7.125 L 2.8125 -7.125 L 2.8125 0 Z M 1.03125 0 "/></g></g><g transform="translate(56.443385, 62.179622)"><g><path d="M 1.03125 0 L 1.03125 -7.125 L 2.75 -7.125 L 2.75 -6.078125 L 2.875 -6.046875 C 3.320312 -6.847656 4.039062 -7.25 5.03125 -7.25 C 5.851562 -7.25 6.457031 -7.023438 6.84375 -6.578125 C 7.226562 -6.128906 7.421875 -5.476562 7.421875 -4.625 L 7.421875 0 L 5.640625 0 L 5.640625 -4.40625 C 5.640625 -4.882812 5.539062 -5.226562 5.34375 -5.4375 C 5.15625 -5.644531 4.851562 -5.75 4.4375 -5.75 C 3.925781 -5.75 3.523438 -5.582031 3.234375 -5.25 C 2.953125 -4.914062 2.8125 -4.394531 2.8125 -3.6875 L 2.8125 0 Z M 1.03125 0 "/></g></g></g><g fill="#000000" fill-opacity="1"><g transform="translate(29.626712, 73.562813)"><g><path d="M 1.03125 2.890625 L 1.03125 -7.125 L 2.8125 -7.125 L 2.8125 -6.1875 L 2.953125 -6.15625 C 3.160156 -6.519531 3.441406 -6.789062 3.796875 -6.96875 C 4.148438 -7.15625 4.5625 -7.25 5.03125 -7.25 C 5.601562 -7.25 6.101562 -7.113281 6.53125 -6.84375 C 6.957031 -6.570312 7.289062 -6.160156 7.53125 -5.609375 C 7.769531 -5.054688 7.890625 -4.375 7.890625 -3.5625 C 7.890625 -2.75 7.765625 -2.066406 7.515625 -1.515625 C 7.265625 -0.960938 6.914062 -0.546875 6.46875 -0.265625 C 6.019531 0.00390625 5.503906 0.140625 4.921875 0.140625 C 4.472656 0.140625 4.085938 0.0664062 3.765625 -0.078125 C 3.441406 -0.234375 3.171875 -0.46875 2.953125 -0.78125 L 2.8125 -0.75 L 2.8125 2.890625 Z M 4.421875 -1.375 C 4.953125 -1.375 5.351562 -1.546875 5.625 -1.890625 C 5.90625 -2.242188 6.046875 -2.800781 6.046875 -3.5625 C 6.046875 -4.3125 5.90625 -4.859375 5.625 -5.203125 C 5.351562 -5.554688 4.953125 -5.734375 4.421875 -5.734375 C 3.921875 -5.734375 3.523438 -5.550781 3.234375 -5.1875 C 2.941406 -4.832031 2.796875 -4.289062 2.796875 -3.5625 C 2.796875 -2.832031 2.941406 -2.285156 3.234375 -1.921875 C 3.523438 -1.554688 3.921875 -1.375 4.421875 -1.375 Z M 4.421875 -1.375 "/></g></g></g><g fill="#000000" fill-opacity="1"><g transform="translate(38.153643, 73.562813)"><g><path d="M 3.265625 0.140625 C 2.460938 0.140625 1.867188 -0.078125 1.484375 -0.515625 C 1.109375 -0.953125 0.921875 -1.582031 0.921875 -2.40625 L 0.921875 -7.125 L 2.703125 -7.125 L 2.703125 -2.625 C 2.703125 -2.1875 2.796875 -1.867188 2.984375 -1.671875 C 3.171875 -1.472656 3.460938 -1.375 3.859375 -1.375 C 4.347656 -1.375 4.726562 -1.535156 5 -1.859375 C 5.28125 -2.179688 5.421875 -2.691406 5.421875 -3.390625 L 5.421875 -7.125 L 7.203125 -7.125 L 7.203125 0 L 5.5 0 L 5.5 -1.046875 L 5.359375 -1.078125 C 5.128906 -0.671875 4.847656 -0.363281 4.515625 -0.15625 C 4.191406 0.0390625 3.773438 0.140625 3.265625 0.140625 Z M 3.265625 0.140625 "/></g></g><g transform="translate(46.393182, 73.562813)"><g><path d="M 2.953125 0.140625 C 2.316406 0.140625 1.828125 -0.03125 1.484375 -0.375 C 1.148438 -0.726562 0.984375 -1.257812 0.984375 -1.96875 L 0.984375 -9.984375 L 2.765625 -9.984375 L 2.765625 -2.03125 C 2.765625 -1.59375 2.945312 -1.375 3.3125 -1.375 C 3.414062 -1.375 3.523438 -1.394531 3.640625 -1.4375 L 3.734375 -1.40625 L 3.890625 -0.03125 C 3.796875 0.0195312 3.664062 0.0625 3.5 0.09375 C 3.332031 0.125 3.148438 0.140625 2.953125 0.140625 Z M 2.953125 0.140625 "/></g></g><g transform="translate(50.487122, 73.562813)"><g><path d="M 3.328125 0.140625 C 2.835938 0.140625 2.390625 0.0820312 1.984375 -0.03125 C 1.585938 -0.144531 1.242188 -0.300781 0.953125 -0.5 C 0.671875 -0.707031 0.460938 -0.9375 0.328125 -1.1875 L 1.3125 -2.265625 L 1.453125 -2.265625 C 1.691406 -1.941406 1.972656 -1.703125 2.296875 -1.546875 C 2.617188 -1.390625 2.96875 -1.3125 3.34375 -1.3125 C 3.6875 -1.3125 3.945312 -1.375 4.125 -1.5 C 4.300781 -1.625 4.390625 -1.800781 4.390625 -2.03125 C 4.390625 -2.207031 4.328125 -2.359375 4.203125 -2.484375 C 4.078125 -2.609375 3.875 -2.707031 3.59375 -2.78125 L 2.640625 -3 C 1.941406 -3.164062 1.425781 -3.421875 1.09375 -3.765625 C 0.769531 -4.117188 0.609375 -4.5625 0.609375 -5.09375 C 0.609375 -5.53125 0.722656 -5.910156 0.953125 -6.234375 C 1.179688 -6.566406 1.5 -6.816406 1.90625 -6.984375 C 2.320312 -7.160156 2.800781 -7.25 3.34375 -7.25 C 3.988281 -7.25 4.519531 -7.15625 4.9375 -6.96875 C 5.351562 -6.789062 5.679688 -6.546875 5.921875 -6.234375 L 4.96875 -5.203125 L 4.84375 -5.203125 C 4.644531 -5.421875 4.421875 -5.582031 4.171875 -5.6875 C 3.921875 -5.789062 3.644531 -5.84375 3.34375 -5.84375 C 2.632812 -5.84375 2.28125 -5.625 2.28125 -5.1875 C 2.28125 -5 2.34375 -4.847656 2.46875 -4.734375 C 2.601562 -4.617188 2.835938 -4.523438 3.171875 -4.453125 L 4.046875 -4.265625 C 4.773438 -4.109375 5.304688 -3.859375 5.640625 -3.515625 C 5.972656 -3.171875 6.140625 -2.710938 6.140625 -2.140625 C 6.140625 -1.679688 6.023438 -1.28125 5.796875 -0.9375 C 5.578125 -0.59375 5.253906 -0.328125 4.828125 -0.140625 C 4.410156 0.046875 3.910156 0.140625 3.328125 0.140625 Z M 3.328125 0.140625 "/></g></g><g transform="translate(57.054215, 73.562813)"><g><path d="M 7.03125 -3.15625 L 2.453125 -3.15625 C 2.503906 -2.539062 2.679688 -2.085938 2.984375 -1.796875 C 3.285156 -1.515625 3.695312 -1.375 4.21875 -1.375 C 4.625 -1.375 4.953125 -1.453125 5.203125 -1.609375 C 5.460938 -1.765625 5.671875 -1.992188 5.828125 -2.296875 L 5.96875 -2.296875 L 7.15625 -1.546875 C 6.914062 -1.046875 6.5625 -0.640625 6.09375 -0.328125 C 5.625 -0.015625 5 0.140625 4.21875 0.140625 C 3.488281 0.140625 2.851562 0 2.3125 -0.28125 C 1.78125 -0.5625 1.367188 -0.976562 1.078125 -1.53125 C 0.785156 -2.082031 0.640625 -2.757812 0.640625 -3.5625 C 0.640625 -4.363281 0.789062 -5.039062 1.09375 -5.59375 C 1.40625 -6.15625 1.820312 -6.570312 2.34375 -6.84375 C 2.863281 -7.113281 3.445312 -7.25 4.09375 -7.25 C 5.101562 -7.25 5.875 -6.984375 6.40625 -6.453125 C 6.9375 -5.921875 7.203125 -5.140625 7.203125 -4.109375 C 7.203125 -3.734375 7.191406 -3.441406 7.171875 -3.234375 Z M 5.5 -4.3125 C 5.476562 -4.851562 5.347656 -5.242188 5.109375 -5.484375 C 4.878906 -5.734375 4.539062 -5.859375 4.09375 -5.859375 C 3.1875 -5.859375 2.65625 -5.34375 2.5 -4.3125 Z M 5.5 -4.3125 "/></g></g></g><g clip-path="url(#b6a9580128)"><path fill="#000000" d="M 16.164062 64.410156 L 19.371094 64.410156 C 21.179688 64.410156 22.355469 64.507812 22.894531 64.695312 C 23.433594 64.886719 23.847656 65.1875 24.132812 65.605469 C 24.421875 66.019531 24.566406 66.527344 24.566406 67.125 C 24.566406 67.828125 24.378906 68.390625 24.007812 68.8125 C 23.636719 69.230469 23.15625 69.496094 22.566406 69.605469 C 22.179688 69.683594 21.273438 69.726562 19.839844 69.726562 L 16.164062 69.726562 Z M 16.164062 56.511719 L 18.445312 56.511719 C 20.316406 56.511719 21.449219 56.535156 21.839844 56.578125 C 22.503906 56.660156 23 56.894531 23.339844 57.277344 C 23.671875 57.660156 23.839844 58.160156 23.839844 58.773438 C 23.839844 59.414062 23.644531 59.933594 23.257812 60.324219 C 22.867188 60.71875 22.332031 60.957031 21.652344 61.039062 C 21.277344 61.082031 20.316406 61.105469 18.769531 61.105469 L 16.164062 61.105469 Z M 12.671875 73.074219 L 12.671875 75.78125 L 15.945312 75.78125 L 15.945312 73.074219 L 18.015625 73.074219 L 18.015625 75.78125 L 21.289062 75.78125 L 21.289062 73.039062 C 22.4375 73.015625 23.265625 72.984375 23.679688 72.9375 C 24.734375 72.820312 25.621094 72.507812 26.34375 71.996094 C 27.0625 71.488281 27.628906 70.800781 28.046875 69.949219 C 28.460938 69.09375 28.671875 68.214844 28.671875 67.3125 C 28.671875 66.167969 28.347656 65.167969 27.703125 64.320312 C 27.058594 63.46875 26.136719 62.867188 24.941406 62.515625 C 25.789062 62.125 26.464844 61.542969 26.960938 60.765625 C 27.457031 59.992188 27.703125 59.136719 27.703125 58.203125 C 27.703125 57.347656 27.503906 56.570312 27.101562 55.878906 C 26.695312 55.1875 26.195312 54.636719 25.589844 54.222656 C 24.988281 53.804688 24.304688 53.53125 23.539062 53.402344 C 22.992188 53.308594 22.234375 53.25 21.289062 53.222656 L 21.289062 50.28125 L 18.015625 50.28125 L 18.015625 53.203125 L 15.945312 53.203125 L 15.945312 50.28125 L 12.671875 50.28125 L 12.671875 53.203125 L 9.179688 53.203125 L 9.179688 56.511719 L 12.195312 56.511719 L 12.195312 69.765625 L 9.179688 69.765625 L 9.179688 73.074219 L 12.671875 73.074219 " fill-opacity="1" fill-rule="nonzero"/></g></svg>