<svg xmlns="http://www.w3.org/2000/svg" xmlns:xlink="http://www.w3.org/1999/xlink" width="128" zoomAndPan="magnify" viewBox="0 0 96 95.999999" height="128" preserveAspectRatio="xMidYMid meet" version="1.0"><defs><clipPath id="e88da29500"><path d="M 20.78125 36.59375 L 38.78125 36.59375 L 38.78125 55.34375 L 20.78125 55.34375 Z M 20.78125 36.59375 " clip-rule="nonzero"/></clipPath><clipPath id="89411c6558"><path d="M 61.105469 33.042969 L 74.605469 33.042969 L 74.605469 51.792969 L 61.105469 51.792969 Z M 61.105469 33.042969 " clip-rule="nonzero"/></clipPath></defs><path fill="#ffbd59" d="M 79.703125 55.957031 C 75.339844 73.402344 57.65625 84.0625 40.128906 79.703125 C 22.683594 75.339844 12.023438 57.65625 16.386719 40.128906 C 20.746094 22.683594 38.433594 12.023438 55.957031 16.386719 C 73.402344 20.746094 84.0625 38.433594 79.703125 55.957031 Z M 79.703125 55.957031 " fill-opacity="1" fill-rule="nonzero"/><path fill="#ffffff" d="M 62.417969 43.359375 C 63.066406 39 59.753906 36.65625 55.230469 35.121094 L 56.683594 29.226562 L 53.132812 28.339844 L 51.679688 34.074219 C 50.710938 33.832031 49.742188 33.589844 48.773438 33.429688 L 50.226562 27.695312 L 46.671875 26.804688 L 45.21875 32.699219 C 44.410156 32.539062 43.683594 32.378906 42.957031 32.136719 L 38.03125 30.925781 L 37.0625 34.71875 L 39.648438 35.367188 C 41.101562 35.691406 41.34375 36.660156 41.34375 37.46875 L 39.644531 44.167969 C 39.726562 44.167969 39.886719 44.25 40.046875 44.25 C 39.964844 44.25 39.804688 44.167969 39.644531 44.167969 L 37.300781 53.535156 C 37.140625 53.941406 36.65625 54.65625 35.6875 54.421875 C 35.6875 54.503906 33.101562 53.777344 33.101562 53.777344 L 31.324219 57.898438 L 36.007812 59.019531 C 36.898438 59.261719 37.707031 59.503906 38.59375 59.664062 L 37.140625 65.640625 L 40.695312 66.527344 L 42.148438 60.632812 L 44.984375 61.371094 L 43.53125 67.265625 L 47.082031 68.15625 L 48.535156 62.179688 C 54.675781 63.300781 59.199219 62.90625 61.136719 57.335938 C 62.671875 52.894531 61.054688 50.296875 57.824219 48.613281 C 60.246094 48.128906 61.945312 46.59375 62.429688 43.363281 Z M 54.261719 54.90625 C 53.140625 59.347656 45.703125 56.925781 43.277344 56.359375 L 45.214844 48.445312 C 47.640625 49.011719 55.390625 50.222656 54.261719 54.90625 Z M 55.382812 43.359375 C 54.414062 47.398438 48.117188 45.378906 46.097656 44.8125 L 47.875 37.625 C 49.890625 38.1875 56.433594 39.078125 55.382812 43.359375 Z M 55.382812 43.359375 " fill-opacity="1" fill-rule="nonzero"/><g clip-path="url(#e88da29500)"><path fill="#ffffff" d="M 42.152344 56.796875 L 42.140625 56.796875 C 41.917969 56.792969 41.710938 56.726562 41.527344 56.597656 C 41.34375 56.464844 41.214844 56.292969 41.136719 56.078125 L 35.929688 41.675781 L 33.554688 52.726562 C 33.503906 52.949219 33.398438 53.136719 33.238281 53.292969 C 33.074219 53.445312 32.878906 53.542969 32.660156 53.574219 C 32.4375 53.609375 32.226562 53.578125 32.023438 53.480469 C 31.824219 53.378906 31.667969 53.230469 31.558594 53.035156 L 27.6875 46.148438 L 17.074219 46.148438 C 16.929688 46.148438 16.792969 46.121094 16.660156 46.066406 C 16.527344 46.011719 16.410156 45.929688 16.308594 45.828125 C 16.207031 45.726562 16.128906 45.609375 16.074219 45.472656 C 16.019531 45.339844 15.992188 45.199219 15.992188 45.054688 C 15.992188 44.910156 16.019531 44.769531 16.074219 44.636719 C 16.128906 44.503906 16.207031 44.382812 16.308594 44.28125 C 16.410156 44.179688 16.527344 44.101562 16.660156 44.042969 C 16.792969 43.988281 16.929688 43.960938 17.074219 43.960938 L 28.316406 43.960938 C 28.734375 43.960938 29.050781 44.144531 29.257812 44.515625 L 32.042969 49.472656 L 34.609375 37.53125 C 34.664062 37.292969 34.777344 37.09375 34.960938 36.933594 C 35.144531 36.777344 35.355469 36.6875 35.59375 36.671875 C 35.832031 36.65625 36.054688 36.714844 36.257812 36.84375 C 36.457031 36.976562 36.601562 37.160156 36.683594 37.386719 L 42.1875 52.613281 L 45.039062 45.238281 C 45.121094 45.03125 45.25 44.863281 45.433594 44.734375 C 45.621094 44.609375 45.820312 44.546875 46.042969 44.546875 L 58.296875 44.546875 C 58.4375 44.546875 58.578125 44.574219 58.707031 44.628906 C 58.839844 44.683594 58.957031 44.761719 59.058594 44.867188 C 59.160156 44.96875 59.238281 45.085938 59.292969 45.21875 C 59.347656 45.355469 59.375 45.492188 59.375 45.640625 C 59.375 45.785156 59.347656 45.921875 59.292969 46.058594 C 59.238281 46.191406 59.160156 46.308594 59.058594 46.414062 C 58.957031 46.515625 58.839844 46.59375 58.707031 46.648438 C 58.578125 46.703125 58.4375 46.734375 58.296875 46.734375 L 46.78125 46.734375 L 43.160156 56.101562 C 43.078125 56.3125 42.945312 56.480469 42.761719 56.605469 C 42.578125 56.734375 42.375 56.796875 42.152344 56.796875 Z M 42.152344 56.796875 " fill-opacity="1" fill-rule="nonzero"/></g><g clip-path="url(#89411c6558)"><path fill="#ffffff" d="M 64.65625 51.75 L 64.644531 51.75 C 64.429688 51.746094 64.238281 51.683594 64.0625 51.5625 C 63.890625 51.441406 63.765625 51.28125 63.691406 51.082031 L 58.753906 37.75 L 56.5 47.980469 C 56.453125 48.183594 56.355469 48.359375 56.199219 48.503906 C 56.042969 48.648438 55.863281 48.734375 55.652344 48.765625 C 55.441406 48.796875 55.242188 48.765625 55.050781 48.675781 C 54.859375 48.585938 54.710938 48.449219 54.605469 48.265625 L 50.9375 41.890625 L 40.875 41.890625 C 40.738281 41.890625 40.605469 41.863281 40.480469 41.8125 C 40.355469 41.761719 40.246094 41.6875 40.148438 41.59375 C 40.050781 41.5 39.976562 41.386719 39.925781 41.265625 C 39.875 41.140625 39.847656 41.011719 39.847656 40.875 C 39.847656 40.742188 39.875 40.613281 39.925781 40.488281 C 39.976562 40.367188 40.050781 40.253906 40.148438 40.160156 C 40.246094 40.066406 40.355469 39.992188 40.480469 39.941406 C 40.605469 39.890625 40.738281 39.863281 40.875 39.863281 L 51.535156 39.863281 C 51.929688 39.863281 52.230469 40.035156 52.425781 40.375 L 55.066406 44.964844 L 57.503906 33.910156 C 57.550781 33.6875 57.664062 33.503906 57.835938 33.359375 C 58.007812 33.210938 58.207031 33.128906 58.433594 33.113281 C 58.664062 33.097656 58.871094 33.152344 59.0625 33.277344 C 59.253906 33.398438 59.390625 33.566406 59.46875 33.777344 L 64.6875 47.875 L 67.390625 41.046875 C 67.46875 40.855469 67.59375 40.699219 67.765625 40.582031 C 67.941406 40.464844 68.132812 40.40625 68.34375 40.40625 L 79.960938 40.40625 C 80.097656 40.40625 80.230469 40.429688 80.355469 40.480469 C 80.480469 40.53125 80.589844 40.605469 80.6875 40.703125 C 80.78125 40.796875 80.855469 40.90625 80.910156 41.03125 C 80.960938 41.152344 80.988281 41.28125 80.988281 41.417969 C 80.988281 41.550781 80.960938 41.679688 80.910156 41.804688 C 80.855469 41.929688 80.78125 42.039062 80.6875 42.132812 C 80.589844 42.226562 80.480469 42.300781 80.355469 42.351562 C 80.230469 42.402344 80.097656 42.429688 79.960938 42.429688 L 69.046875 42.429688 L 65.609375 51.105469 C 65.53125 51.300781 65.40625 51.453125 65.234375 51.574219 C 65.058594 51.691406 64.867188 51.75 64.65625 51.75 Z M 64.65625 51.75 " fill-opacity="1" fill-rule="nonzero"/></g></svg>