<svg xmlns="http://www.w3.org/2000/svg" xmlns:xlink="http://www.w3.org/1999/xlink" width="500" zoomAndPan="magnify" viewBox="0 0 375 374.999991" height="500" preserveAspectRatio="xMidYMid meet" version="1.0"><defs><clipPath id="99b1ced26a"><path d="M 85.765625 139.125 L 156.265625 139.125 L 156.265625 211.875 L 85.765625 211.875 Z M 85.765625 139.125 " clip-rule="nonzero"/></clipPath><clipPath id="27c6469b85"><path d="M 238.699219 129.070312 L 291.949219 129.070312 L 291.949219 203.320312 L 238.699219 203.320312 Z M 238.699219 129.070312 " clip-rule="nonzero"/></clipPath></defs><path fill="#00df9a" d="M 311.335938 218.582031 C 294.296875 286.730469 225.210938 328.375 156.757812 311.335938 C 88.609375 294.296875 46.964844 225.210938 64.003906 156.757812 C 81.042969 88.609375 150.128906 46.964844 218.582031 64.003906 C 286.730469 81.042969 328.375 150.128906 311.335938 218.582031 Z M 311.335938 218.582031 " fill-opacity="1" fill-rule="nonzero"/><path fill="#ffffff" d="M 243.824219 169.371094 C 246.351562 152.339844 233.414062 143.1875 215.746094 137.195312 L 221.421875 114.171875 L 207.542969 110.703125 L 201.867188 133.105469 C 198.082031 132.15625 194.296875 131.210938 190.515625 130.578125 L 196.191406 108.179688 L 182.3125 104.714844 L 176.636719 127.738281 C 173.480469 127.109375 170.640625 126.476562 167.804688 125.53125 L 148.5625 120.800781 L 144.777344 135.625 L 154.871094 138.152344 C 160.546875 139.414062 161.496094 143.199219 161.496094 146.359375 L 154.859375 172.53125 C 155.179688 172.53125 155.808594 172.851562 156.4375 172.851562 C 156.117188 172.851562 155.488281 172.53125 154.859375 172.53125 L 145.710938 209.125 C 145.078125 210.703125 143.183594 213.507812 139.398438 212.59375 C 139.398438 212.910156 129.304688 210.066406 129.304688 210.066406 L 122.363281 226.160156 L 140.660156 230.542969 C 144.128906 231.492188 147.285156 232.433594 150.757812 233.066406 L 145.078125 256.414062 L 158.960938 259.878906 L 164.636719 236.851562 L 175.71875 239.738281 L 170.042969 262.761719 L 183.921875 266.226562 L 189.597656 242.882812 C 213.570312 247.265625 231.238281 245.722656 238.8125 223.960938 C 244.808594 206.613281 238.492188 196.472656 225.878906 189.886719 C 235.34375 187.996094 241.972656 182 243.859375 169.382812 Z M 211.960938 214.480469 C 207.582031 231.828125 178.523438 222.367188 169.058594 220.15625 L 176.625 189.242188 C 186.09375 191.449219 216.375 196.183594 211.960938 214.480469 Z M 216.34375 169.367188 C 212.558594 185.144531 187.953125 177.257812 180.066406 175.046875 L 187.003906 146.96875 C 194.890625 149.175781 220.445312 152.644531 216.34375 169.367188 Z M 216.34375 169.367188 " fill-opacity="1" fill-rule="nonzero"/><g clip-path="url(#99b1ced26a)"><path fill="#ffffff" d="M 169.441406 217.695312 L 169.390625 217.695312 C 168.964844 217.691406 168.542969 217.621094 168.136719 217.488281 C 167.726562 217.355469 167.347656 217.164062 166.996094 216.914062 C 166.644531 216.664062 166.339844 216.371094 166.078125 216.027344 C 165.820312 215.683594 165.613281 215.308594 165.464844 214.902344 L 145.089844 158.890625 L 135.78125 201.867188 C 135.691406 202.289062 135.539062 202.6875 135.328125 203.0625 C 135.117188 203.4375 134.855469 203.769531 134.542969 204.066406 C 134.230469 204.359375 133.882812 204.601562 133.496094 204.789062 C 133.113281 204.976562 132.707031 205.105469 132.285156 205.167969 C 131.863281 205.234375 131.4375 205.234375 131.015625 205.167969 C 130.59375 205.105469 130.1875 204.980469 129.800781 204.792969 C 129.417969 204.605469 129.066406 204.363281 128.753906 204.070312 C 128.441406 203.773438 128.179688 203.441406 127.96875 203.066406 L 112.828125 176.285156 L 71.289062 176.285156 C 71.011719 176.285156 70.734375 176.257812 70.460938 176.203125 C 70.191406 176.148438 69.925781 176.066406 69.667969 175.960938 C 69.414062 175.855469 69.167969 175.722656 68.9375 175.570312 C 68.707031 175.414062 68.492188 175.238281 68.296875 175.039062 C 68.101562 174.84375 67.925781 174.628906 67.769531 174.394531 C 67.617188 174.164062 67.484375 173.917969 67.378906 173.660156 C 67.273438 173.402344 67.191406 173.136719 67.140625 172.863281 C 67.085938 172.585938 67.058594 172.3125 67.058594 172.03125 C 67.058594 171.753906 67.085938 171.476562 67.140625 171.203125 C 67.191406 170.925781 67.273438 170.660156 67.378906 170.402344 C 67.484375 170.144531 67.617188 169.902344 67.769531 169.667969 C 67.925781 169.4375 68.101562 169.222656 68.296875 169.023438 C 68.492188 168.824219 68.707031 168.648438 68.9375 168.496094 C 69.167969 168.339844 69.414062 168.207031 69.667969 168.101562 C 69.925781 167.996094 70.191406 167.914062 70.460938 167.859375 C 70.734375 167.804688 71.011719 167.777344 71.289062 167.777344 L 115.289062 167.777344 C 116.046875 167.777344 116.757812 167.96875 117.414062 168.355469 C 118.074219 168.738281 118.589844 169.265625 118.964844 169.929688 L 129.867188 189.203125 L 139.921875 142.765625 C 140.019531 142.3125 140.1875 141.890625 140.421875 141.496094 C 140.65625 141.097656 140.945312 140.75 141.292969 140.449219 C 141.640625 140.148438 142.023438 139.910156 142.449219 139.734375 C 142.871094 139.558594 143.3125 139.457031 143.769531 139.425781 C 144.226562 139.394531 144.675781 139.4375 145.121094 139.550781 C 145.5625 139.667969 145.976562 139.851562 146.363281 140.101562 C 146.746094 140.351562 147.082031 140.660156 147.367188 141.019531 C 147.652344 141.378906 147.875 141.777344 148.03125 142.207031 L 169.574219 201.425781 L 180.734375 172.75 C 180.886719 172.351562 181.097656 171.984375 181.363281 171.652344 C 181.628906 171.316406 181.9375 171.027344 182.289062 170.785156 C 182.636719 170.546875 183.015625 170.363281 183.425781 170.234375 C 183.832031 170.109375 184.246094 170.046875 184.671875 170.046875 L 232.617188 170.046875 C 232.894531 170.046875 233.171875 170.074219 233.441406 170.128906 C 233.714844 170.183594 233.980469 170.265625 234.234375 170.371094 C 234.492188 170.476562 234.734375 170.609375 234.96875 170.765625 C 235.199219 170.917969 235.410156 171.097656 235.609375 171.292969 C 235.804688 171.492188 235.980469 171.707031 236.132812 171.9375 C 236.289062 172.171875 236.417969 172.414062 236.523438 172.671875 C 236.632812 172.929688 236.710938 173.199219 236.765625 173.472656 C 236.820312 173.746094 236.847656 174.023438 236.847656 174.300781 C 236.847656 174.582031 236.820312 174.855469 236.765625 175.132812 C 236.710938 175.40625 236.632812 175.671875 236.523438 175.929688 C 236.417969 176.1875 236.289062 176.433594 236.132812 176.664062 C 235.980469 176.898438 235.804688 177.113281 235.609375 177.308594 C 235.410156 177.507812 235.199219 177.683594 234.96875 177.839844 C 234.734375 177.992188 234.492188 178.125 234.234375 178.230469 C 233.980469 178.339844 233.714844 178.417969 233.441406 178.472656 C 233.171875 178.527344 232.894531 178.554688 232.617188 178.554688 L 187.5625 178.554688 L 173.378906 214.996094 C 173.222656 215.394531 173.015625 215.757812 172.75 216.09375 C 172.484375 216.429688 172.175781 216.714844 171.824219 216.957031 C 171.472656 217.199219 171.09375 217.382812 170.6875 217.507812 C 170.28125 217.632812 169.867188 217.695312 169.441406 217.695312 Z M 169.441406 217.695312 " fill-opacity="1" fill-rule="nonzero"/></g><g clip-path="url(#27c6469b85)"><path fill="#ffffff" d="M 252.175781 203.148438 L 252.132812 203.148438 C 251.726562 203.144531 251.332031 203.078125 250.945312 202.953125 C 250.5625 202.828125 250.203125 202.648438 249.871094 202.410156 C 249.542969 202.175781 249.253906 201.898438 249.007812 201.574219 C 248.761719 201.25 248.570312 200.898438 248.429688 200.515625 L 229.21875 147.707031 L 220.445312 188.226562 C 220.359375 188.621094 220.214844 188.996094 220.015625 189.351562 C 219.816406 189.703125 219.570312 190.019531 219.277344 190.296875 C 218.984375 190.574219 218.65625 190.800781 218.292969 190.980469 C 217.929688 191.15625 217.546875 191.277344 217.148438 191.335938 C 216.75 191.398438 216.351562 191.398438 215.953125 191.335938 C 215.550781 191.277344 215.171875 191.160156 214.808594 190.980469 C 214.445312 190.804688 214.117188 190.578125 213.820312 190.300781 C 213.527344 190.023438 213.28125 189.707031 213.082031 189.355469 L 198.804688 164.105469 L 159.644531 164.105469 C 159.382812 164.105469 159.125 164.082031 158.867188 164.03125 C 158.609375 163.976562 158.359375 163.902344 158.117188 163.800781 C 157.875 163.699219 157.648438 163.578125 157.429688 163.429688 C 157.210938 163.285156 157.011719 163.117188 156.824219 162.933594 C 156.640625 162.746094 156.476562 162.542969 156.328125 162.324219 C 156.183594 162.105469 156.0625 161.875 155.960938 161.632812 C 155.859375 161.386719 155.785156 161.136719 155.734375 160.878906 C 155.683594 160.621094 155.65625 160.359375 155.65625 160.097656 C 155.65625 159.832031 155.683594 159.574219 155.734375 159.3125 C 155.785156 159.054688 155.859375 158.804688 155.960938 158.5625 C 156.0625 158.320312 156.183594 158.085938 156.328125 157.867188 C 156.476562 157.648438 156.640625 157.445312 156.824219 157.261719 C 157.011719 157.074219 157.210938 156.910156 157.429688 156.761719 C 157.648438 156.617188 157.875 156.492188 158.117188 156.390625 C 158.359375 156.289062 158.609375 156.214844 158.867188 156.164062 C 159.125 156.113281 159.382812 156.085938 159.644531 156.085938 L 201.125 156.085938 C 201.84375 156.085938 202.511719 156.269531 203.128906 156.628906 C 203.75 156.992188 204.238281 157.488281 204.59375 158.113281 L 214.867188 176.285156 L 224.347656 132.503906 C 224.441406 132.078125 224.597656 131.679688 224.820312 131.308594 C 225.039062 130.933594 225.3125 130.605469 225.640625 130.320312 C 225.96875 130.039062 226.332031 129.8125 226.730469 129.648438 C 227.128906 129.484375 227.542969 129.386719 227.976562 129.355469 C 228.40625 129.328125 228.832031 129.367188 229.25 129.476562 C 229.667969 129.585938 230.058594 129.757812 230.417969 129.996094 C 230.78125 130.230469 231.097656 130.519531 231.367188 130.859375 C 231.636719 131.199219 231.84375 131.574219 231.992188 131.980469 L 252.300781 187.808594 L 262.824219 160.773438 C 262.96875 160.398438 263.167969 160.054688 263.417969 159.738281 C 263.667969 159.421875 263.957031 159.152344 264.289062 158.921875 C 264.617188 158.695312 264.976562 158.523438 265.359375 158.402344 C 265.742188 158.285156 266.132812 158.226562 266.535156 158.226562 L 311.734375 158.226562 C 311.996094 158.226562 312.257812 158.25 312.511719 158.304688 C 312.769531 158.355469 313.019531 158.429688 313.261719 158.53125 C 313.503906 158.632812 313.734375 158.753906 313.949219 158.902344 C 314.167969 159.046875 314.371094 159.214844 314.554688 159.402344 C 314.738281 159.585938 314.90625 159.789062 315.050781 160.007812 C 315.195312 160.226562 315.320312 160.457031 315.417969 160.703125 C 315.519531 160.945312 315.59375 161.195312 315.644531 161.453125 C 315.699219 161.710938 315.722656 161.972656 315.722656 162.238281 C 315.722656 162.5 315.699219 162.761719 315.644531 163.019531 C 315.59375 163.277344 315.519531 163.527344 315.417969 163.769531 C 315.320312 164.015625 315.195312 164.246094 315.050781 164.464844 C 314.90625 164.683594 314.738281 164.886719 314.554688 165.070312 C 314.371094 165.257812 314.167969 165.425781 313.949219 165.570312 C 313.734375 165.71875 313.503906 165.839844 313.261719 165.941406 C 313.019531 166.042969 312.769531 166.117188 312.511719 166.167969 C 312.257812 166.222656 311.996094 166.246094 311.734375 166.246094 L 269.257812 166.246094 L 255.890625 200.601562 C 255.742188 200.976562 255.546875 201.320312 255.296875 201.636719 C 255.046875 201.953125 254.753906 202.222656 254.425781 202.453125 C 254.09375 202.679688 253.734375 202.851562 253.351562 202.96875 C 252.96875 203.089844 252.578125 203.148438 252.175781 203.148438 Z M 252.175781 203.148438 " fill-opacity="1" fill-rule="nonzero"/></g></svg>